<svg xmlns="http://www.w3.org/2000/svg" xmlns:xlink="http://www.w3.org/1999/xlink" width="1172pt" height="229pt" viewBox="0 0 1172.33 229"><g id="graph0" class="graph" transform="scale(1 1) rotate(0) translate(4 225)"><title>flow</title><polygon fill="#fff" stroke="none" points="-4 4 -4 -225 1168.33 -225 1168.33 4 -4 4"/><g id="clust1" class="cluster"><title>cluster_0</title><g id="a_clust1"><a xlink:title="f"><path fill="#fcfcfc" stroke="#000" d="M20,-8C20,-8 1144.33,-8 1144.33,-8 1150.33,-8 1156.33,-14 1156.33,-20 1156.33,-20 1156.33,-201 1156.33,-201 1156.33,-207 1150.33,-213 1144.33,-213 1144.33,-213 20,-213 20,-213 14,-213 8,-207 8,-201 8,-201 8,-20 8,-20 8,-14 14,-8 20,-8"/><text x="582.164" y="-197.8" font-family="arial" font-size="14" text-anchor="middle">f</text></a></g></g><g id="node1" class="node"><title>f/MatMul</title><g id="a_node1"><a xlink:title="name: f/MatMul type: MatMulAddRelu input: f/x: float32[1x64] f/W: float32[64x256] f/b: float32[256] output: f/Relu:0: float32[1x256] func: f"><path fill="#efd8a9" stroke="#a79776" d="M296.007,-118C296.007,-118 204.007,-118 204.007,-118 198.007,-118 192.007,-112 192.007,-106 192.007,-106 192.007,-92 192.007,-92 192.007,-86 198.007,-80 204.007,-80 204.007,-80 296.007,-80 296.007,-80 302.007,-80 308.007,-86 308.007,-92 308.007,-92 308.007,-106 308.007,-106 308.007,-112 302.007,-118 296.007,-118"/><text x="250.007" y="-102.8" font-family="arial" font-size="14" text-anchor="middle">MatMulAddRelu</text><text x="250.007" y="-87.8" font-family="arial" font-size="14" text-anchor="middle">float32[1x256]</text></a></g></g><g id="node2" class="node"><title>f/Max</title><g id="a_node2"><a xlink:title="name: f/Max type: Max input: f/Relu:0: float32[1x256] output: f/Max:0: float32 func: f"><path fill="#efd8a9" stroke="#a79776" d="M392.007,-90C392.007,-90 356.007,-90 356.007,-90 350.007,-90 344.007,-84 344.007,-78 344.007,-78 344.007,-64 344.007,-64 344.007,-58 350.007,-52 356.007,-52 356.007,-52 392.007,-52 392.007,-52 398.007,-52 404.007,-58 404.007,-64 404.007,-64 404.007,-78 404.007,-78 404.007,-84 398.007,-90 392.007,-90"/><text x="374.007" y="-74.8" font-family="arial" font-size="14" text-anchor="middle">Max</text><text x="374.007" y="-59.8" font-family="arial" font-size="14" text-anchor="middle">float32</text></a></g></g><g id="edge5" class="edge"><title>f/MatMul-&gt;f/Max</title><g id="a_edge5"><a xlink:title="f/Relu:0"><path fill="none" stroke="#000" d="M308.078,-85.9018C316.896,-83.878 325.823,-81.829 334.12,-79.9249"/><polygon fill="#000" stroke="#000" points="334.914 -83.334 343.877 -77.686 333.348 -76.511 334.914 -83.334"/></a></g></g><g id="node3" class="node"><title>f/Sub</title><g id="a_node3"><a xlink:title="name: f/Sub type: Calculate input: %0 f/Relu:0: float32[1x256] %1 f/Max:0: float32 output: @0 f/Exp:0: float32[1x256] @1 f/Sum:0: float32 func: f attr: expr = @0=Exp(Sub(%0,%1));@1=Sum(@0)"><path fill="#efd8a9" stroke="#a79776" d="M685.007,-95C685.007,-95 452.007,-95 452.007,-95 446.007,-95 440.007,-89 440.007,-83 440.007,-83 440.007,-69 440.007,-69 440.007,-63 446.007,-57 452.007,-57 452.007,-57 685.007,-57 685.007,-57 691.007,-57 697.007,-63 697.007,-69 697.007,-69 697.007,-83 697.007,-83 697.007,-89 691.007,-95 685.007,-95"/><text x="568.507" y="-79.8" font-family="arial" font-size="14" text-anchor="middle">@0=Exp(Sub(%0,%1));@1=Sum(@0)</text><text x="568.507" y="-64.8" font-family="arial" font-size="14" text-anchor="middle">float32[1x256]</text></a></g></g><g id="edge4" class="edge"><title>f/MatMul-&gt;f/Sub</title><g id="a_edge4"><a xlink:title="%0 = f/Relu:0"><path fill="none" stroke="#000" d="M308.109,-100.89C336.901,-101.363 372.342,-101.216 404.007,-99 414.3,-98.2796 424.931,-97.307 435.602,-96.1674"/><polygon fill="#000" stroke="#000" points="436.284 -99.613 445.834 -95.026 435.508 -92.656 436.284 -99.613"/></a></g></g><g id="edge6" class="edge"><title>f/Max-&gt;f/Sub</title><g id="a_edge6"><a xlink:title="%1 = f/Max:0"><path fill="none" stroke="#000" d="M404.244,-71.7594C411.736,-71.954 420.304,-72.1765 429.503,-72.4155"/><polygon fill="#000" stroke="#000" points="429.624 -75.92 439.711 -72.681 429.806 -68.922 429.624 -75.92"/></a></g></g><g id="node4" class="node"><title>f/Reciprocal</title><g id="a_node4"><a xlink:title="name: f/Reciprocal type: Reciprocal input: f/Sum:0: float32 output: f/Reciprocal:0: float32 func: f"><path fill="#efd8a9" stroke="#a79776" d="M806.007,-77C806.007,-77 745.007,-77 745.007,-77 739.007,-77 733.007,-71 733.007,-65 733.007,-65 733.007,-51 733.007,-51 733.007,-45 739.007,-39 745.007,-39 745.007,-39 806.007,-39 806.007,-39 812.007,-39 818.007,-45 818.007,-51 818.007,-51 818.007,-65 818.007,-65 818.007,-71 812.007,-77 806.007,-77"/><text x="775.507" y="-61.8" font-family="arial" font-size="14" text-anchor="middle">Reciprocal</text><text x="775.507" y="-46.8" font-family="arial" font-size="14" text-anchor="middle">float32</text></a></g></g><g id="edge8" class="edge"><title>f/Sub-&gt;f/Reciprocal</title><g id="a_edge8"><a xlink:title="f/Sum:0 (@1)"><path fill="none" stroke="#000" d="M697.298,-64.7794C706.103,-64.0062 714.643,-63.2564 722.634,-62.5547"/><polygon fill="#000" stroke="#000" points="723.145 -66.023 732.8 -61.662 722.533 -59.05 723.145 -66.023"/></a></g></g><g id="node5" class="node"><title>f/y</title><g id="a_node5"><a xlink:title="name: f/y type: Mul input: f/Exp:0: float32[1x256] f/Reciprocal:0: float32 output: f/y:0: float32[1x256] func: f"><path fill="#efd8a9" stroke="#a79776" d="M949.007,-79C949.007,-79 866.007,-79 866.007,-79 860.007,-79 854.007,-73 854.007,-67 854.007,-67 854.007,-53 854.007,-53 854.007,-47 860.007,-41 866.007,-41 866.007,-41 949.007,-41 949.007,-41 955.007,-41 961.007,-47 961.007,-53 961.007,-53 961.007,-67 961.007,-67 961.007,-73 955.007,-79 949.007,-79"/><text x="907.507" y="-63.8" font-family="arial" font-size="14" text-anchor="middle">Mul</text><text x="907.507" y="-48.8" font-family="arial" font-size="14" text-anchor="middle">float32[1x256]</text></a></g></g><g id="edge7" class="edge"><title>f/Sub-&gt;f/y</title><g id="a_edge7"><a xlink:title="%0 = f/Exp:0 (@0)"><path fill="none" stroke="#000" d="M697.023,-90.0489C736.006,-91.9519 778.902,-91.6253 818.007,-86 826.529,-84.774 835.376,-82.9162 844.034,-80.746"/><polygon fill="#000" stroke="#000" points="844.934 -84.128 853.702 -78.18 843.139 -77.362 844.934 -84.128"/></a></g></g><g id="edge9" class="edge"><title>f/Reciprocal-&gt;f/y</title><g id="a_edge9"><a xlink:title="%1 = f/Reciprocal:0"><path fill="none" stroke="#000" d="M818.356,-58.6438C826.465,-58.7686 835.127,-58.9018 843.736,-59.0343"/><polygon fill="#000" stroke="#000" points="843.731 -62.535 853.783 -59.189 843.838 -55.535 843.731 -62.535"/></a></g></g><g id="node9" class="node"><title>v:f/y:0</title><g id="a_node9"><a xlink:title="out var f/y:0"><ellipse cx="1072.67" cy="-60" fill="#bbc6dd" stroke="#828a9a" rx="75.821" ry="26.741"/><text x="1072.67" y="-63.8" font-family="arial" font-size="14" text-anchor="middle">y:0</text><text x="1072.67" y="-48.8" font-family="arial" font-size="14" text-anchor="middle">float32[1x256]</text></a></g></g><g id="edge10" class="edge"><title>f/y-&gt;v:f/y:0</title><g id="a_edge10"><a xlink:title="f/y:0"><path fill="none" stroke="#000" d="M961.03,-60C969.266,-60 977.956,-60 986.698,-60"/><polygon fill="#000" stroke="#000" points="986.961 -63.5 996.961 -60 986.961 -56.5 986.961 -63.5"/></a></g></g><g id="node6" class="node"><title>v:f/W</title><g id="a_node6"><a xlink:title="const var f/W"><polygon fill="#eee" stroke="#a6a6a6" points="144.004 -182 28.004 -182 28.004 -144 144.004 -144 144.004 -182"/><text x="86.004" y="-166.8" font-family="arial" font-size="14" text-anchor="middle">W</text><text x="86.004" y="-151.8" font-family="arial" font-size="14" text-anchor="middle">float32[64x256]</text></a></g></g><g id="edge1" class="edge"><title>v:f/W-&gt;f/MatMul</title><g id="a_edge1"><a xlink:title="%1 = f/W"><path fill="none" stroke="#000" d="M135.171,-143.971C152.804,-137.005 172.935,-129.053 191.315,-121.791"/><polygon fill="#000" stroke="#000" points="192.731 -124.995 200.745 -118.066 190.159 -118.485 192.731 -124.995"/></a></g></g><g id="node7" class="node"><title>v:f/x</title><g id="a_node7"><a xlink:title="in var f/x"><ellipse cx="86.004" cy="-99" fill="#c5e2b6" stroke="#899e7f" rx="70.007" ry="26.741"/><text x="86.004" y="-102.8" font-family="arial" font-size="14" text-anchor="middle">x</text><text x="86.004" y="-87.8" font-family="arial" font-size="14" text-anchor="middle">float32[1x64]</text></a></g></g><g id="edge2" class="edge"><title>v:f/x-&gt;f/MatMul</title><g id="a_edge2"><a xlink:title="%0 = f/x"><path fill="none" stroke="#000" d="M156.178,-99C164.615,-99 173.227,-99 181.638,-99"/><polygon fill="#000" stroke="#000" points="181.771 -102.5 191.771 -99 181.771 -95.5 181.771 -102.5"/></a></g></g><g id="node8" class="node"><title>v:f/b</title><g id="a_node8"><a xlink:title="const var f/b"><polygon fill="#eee" stroke="#a6a6a6" points="132.004 -54 40.004 -54 40.004 -16 132.004 -16 132.004 -54"/><text x="86.004" y="-38.8" font-family="arial" font-size="14" text-anchor="middle">b</text><text x="86.004" y="-23.8" font-family="arial" font-size="14" text-anchor="middle">float32[256]</text></a></g></g><g id="edge3" class="edge"><title>v:f/b-&gt;f/MatMul</title><g id="a_edge3"><a xlink:title="%2 = f/b"><path fill="none" stroke="#000" d="M132.131,-52.8276C150.475,-60.0746 171.896,-68.5369 191.352,-76.2231"/><polygon fill="#000" stroke="#000" points="190.136 -79.506 200.723 -79.925 192.708 -72.996 190.136 -79.506"/></a></g></g></g></svg>